<svg width="184" height="36" viewBox="0 0 184 36" fill="none" xmlns="http://www.w3.org/2000/svg">
<path d="M71.979 6.64795H61.5234V35H53.1255V6.64795H42.8613V0.164062H71.979V6.64795Z" fill="#343A40"/>
<path d="M89.2534 16.4097L86.5977 16.2183C84.0615 16.2183 82.4346 17.0158 81.7168 18.6108V35H73.6538V9.1123H81.2144L81.4775 12.438C82.8333 9.90186 84.7235 8.63379 87.1479 8.63379C88.0093 8.63379 88.759 8.72949 89.397 8.9209L89.2534 16.4097Z" fill="#343A40"/>
<path d="M104.207 35.4785C100.235 35.4785 97.0213 34.2982 94.5649 31.9375C92.1086 29.5609 90.8804 26.4744 90.8804 22.6782V22.0083C90.8804 19.3605 91.3669 17.0238 92.3398 14.998C93.3288 12.9723 94.7643 11.4092 96.6465 10.3086C98.5286 9.19206 100.762 8.63379 103.346 8.63379C106.982 8.63379 109.854 9.76628 111.959 12.0312C114.064 14.2803 115.117 17.4225 115.117 21.458V24.5923H99.0869C99.374 26.0438 100.004 27.1842 100.977 28.0137C101.95 28.8431 103.21 29.2578 104.757 29.2578C107.309 29.2578 109.303 28.3646 110.739 26.5781L114.423 30.9326C113.418 32.3203 111.991 33.4289 110.141 34.2583C108.306 35.0718 106.328 35.4785 104.207 35.4785ZM103.298 14.8545C100.937 14.8545 99.5335 16.4176 99.0869 19.5439H107.222V18.9219C107.254 17.6299 106.927 16.633 106.241 15.9312C105.555 15.2134 104.574 14.8545 103.298 14.8545Z" fill="#343A40"/>
<path d="M126.003 9.1123L126.267 12.1509C128.101 9.80615 130.565 8.63379 133.66 8.63379C136.93 8.63379 139.139 9.93376 140.287 12.5337C142.042 9.93376 144.578 8.63379 147.896 8.63379C153.143 8.63379 155.839 11.8079 155.982 18.1562V35H147.896V18.6587C147.896 17.3348 147.672 16.3698 147.226 15.7637C146.779 15.1576 145.965 14.8545 144.785 14.8545C143.19 14.8545 142.002 15.5643 141.22 16.9839L141.244 17.3188V35H133.157V18.7065C133.157 17.3507 132.942 16.3698 132.511 15.7637C132.081 15.1576 131.259 14.8545 130.047 14.8545C128.5 14.8545 127.319 15.5643 126.506 16.9839V35H118.443V9.1123H126.003Z" fill="#343A40"/>
<path d="M175.171 35C174.884 34.4736 174.629 33.7 174.405 32.6792C172.922 34.5454 170.848 35.4785 168.185 35.4785C165.744 35.4785 163.671 34.7448 161.964 33.2773C160.257 31.7939 159.404 29.9357 159.404 27.7026C159.404 24.8953 160.441 22.7739 162.514 21.3384C164.588 19.9028 167.602 19.1851 171.558 19.1851H174.046V17.8213C174.046 15.4447 173.018 14.2563 170.96 14.2563C169.046 14.2563 168.089 15.1974 168.089 17.0796H160.026C160.026 14.5754 161.087 12.5417 163.208 10.9785C165.345 9.41536 168.065 8.63379 171.367 8.63379C174.668 8.63379 177.276 9.43929 179.19 11.0503C181.104 12.6613 182.085 14.8704 182.133 17.6777V29.1382C182.165 31.5148 182.532 33.3332 183.234 34.5933V35H175.171ZM170.123 29.7363C171.127 29.7363 171.957 29.521 172.611 29.0903C173.281 28.6597 173.759 28.1732 174.046 27.6309V23.4917H171.702C168.894 23.4917 167.491 24.7518 167.491 27.272C167.491 28.0057 167.738 28.6038 168.232 29.0664C168.727 29.513 169.357 29.7363 170.123 29.7363Z" fill="#343A40"/>
<rect width="35" height="35" rx="4" fill="#7952B3"/>
<circle r="5.39461" transform="matrix(1 0 0 -1 9.3785 17.3945)" fill="#EEEEEE"/>
<circle r="5.39461" transform="matrix(1 0 0 -1 25.5621 17.3945)" fill="#EEEEEE"/>
</svg>
